<mxfile host="Electron" modified="2024-01-07T16:38:49.527Z" agent="Mozilla/5.0 (Windows NT 10.0; Win64; x64) AppleWebKit/537.36 (KHTML, like Gecko) draw.io/22.1.16 Chrome/120.0.6099.109 Electron/28.1.0 Safari/537.36" etag="M7_TB77izTRfqyRueeXk" version="22.1.16" type="device">
  <diagram name="Page-1" id="z1NcQJIwQsV-7AD_wY6L">
    <mxGraphModel dx="1050" dy="1729" grid="1" gridSize="10" guides="1" tooltips="1" connect="1" arrows="1" fold="1" page="1" pageScale="1" pageWidth="850" pageHeight="1100" math="0" shadow="0">
      <root>
        <mxCell id="0" />
        <mxCell id="1" parent="0" />
        <mxCell id="HJchU2hsuEq9Lt6WwAvw-2" style="edgeStyle=orthogonalEdgeStyle;rounded=0;orthogonalLoop=1;jettySize=auto;html=1;exitX=0.5;exitY=1;exitDx=0;exitDy=0;" edge="1" parent="1" source="z3DEqq307aL3IMsRYudp-1" target="z3DEqq307aL3IMsRYudp-5">
          <mxGeometry relative="1" as="geometry" />
        </mxCell>
        <mxCell id="HJchU2hsuEq9Lt6WwAvw-3" style="edgeStyle=orthogonalEdgeStyle;rounded=0;orthogonalLoop=1;jettySize=auto;html=1;exitX=0.5;exitY=1;exitDx=0;exitDy=0;" edge="1" parent="1" source="z3DEqq307aL3IMsRYudp-1" target="z3DEqq307aL3IMsRYudp-6">
          <mxGeometry relative="1" as="geometry" />
        </mxCell>
        <mxCell id="HJchU2hsuEq9Lt6WwAvw-4" style="edgeStyle=orthogonalEdgeStyle;rounded=0;orthogonalLoop=1;jettySize=auto;html=1;exitX=0.5;exitY=1;exitDx=0;exitDy=0;entryX=0.5;entryY=0;entryDx=0;entryDy=0;" edge="1" parent="1" source="z3DEqq307aL3IMsRYudp-1" target="z3DEqq307aL3IMsRYudp-4">
          <mxGeometry relative="1" as="geometry" />
        </mxCell>
        <mxCell id="HJchU2hsuEq9Lt6WwAvw-5" style="edgeStyle=orthogonalEdgeStyle;rounded=0;orthogonalLoop=1;jettySize=auto;html=1;exitX=0.5;exitY=1;exitDx=0;exitDy=0;entryX=0.5;entryY=0;entryDx=0;entryDy=0;" edge="1" parent="1" source="z3DEqq307aL3IMsRYudp-1" target="z3DEqq307aL3IMsRYudp-3">
          <mxGeometry relative="1" as="geometry" />
        </mxCell>
        <mxCell id="z3DEqq307aL3IMsRYudp-1" value="&lt;font style=&quot;font-size: 16px;&quot;&gt;Start&lt;/font&gt;" style="rounded=0;whiteSpace=wrap;html=1;" parent="1" vertex="1">
          <mxGeometry x="340" y="20" width="120" height="60" as="geometry" />
        </mxCell>
        <mxCell id="HJchU2hsuEq9Lt6WwAvw-46" style="edgeStyle=orthogonalEdgeStyle;rounded=0;orthogonalLoop=1;jettySize=auto;html=1;exitX=0.5;exitY=1;exitDx=0;exitDy=0;entryX=0.5;entryY=0;entryDx=0;entryDy=0;" edge="1" parent="1" source="z3DEqq307aL3IMsRYudp-3" target="HJchU2hsuEq9Lt6WwAvw-44">
          <mxGeometry relative="1" as="geometry" />
        </mxCell>
        <mxCell id="z3DEqq307aL3IMsRYudp-3" value="&lt;font style=&quot;font-size: 16px;&quot;&gt;Play Bird&lt;/font&gt;" style="rounded=0;whiteSpace=wrap;html=1;" parent="1" vertex="1">
          <mxGeometry x="20" y="150" width="120" height="60" as="geometry" />
        </mxCell>
        <mxCell id="HJchU2hsuEq9Lt6WwAvw-25" style="edgeStyle=orthogonalEdgeStyle;rounded=0;orthogonalLoop=1;jettySize=auto;html=1;exitX=0.5;exitY=1;exitDx=0;exitDy=0;entryX=0.5;entryY=0;entryDx=0;entryDy=0;" edge="1" parent="1" source="z3DEqq307aL3IMsRYudp-4" target="HJchU2hsuEq9Lt6WwAvw-22">
          <mxGeometry relative="1" as="geometry" />
        </mxCell>
        <mxCell id="z3DEqq307aL3IMsRYudp-4" value="&lt;font style=&quot;font-size: 16px;&quot;&gt;Gain Food&lt;/font&gt;" style="rounded=0;whiteSpace=wrap;html=1;" parent="1" vertex="1">
          <mxGeometry x="230" y="150" width="120" height="60" as="geometry" />
        </mxCell>
        <mxCell id="HJchU2hsuEq9Lt6WwAvw-20" style="edgeStyle=orthogonalEdgeStyle;rounded=0;orthogonalLoop=1;jettySize=auto;html=1;exitX=0.5;exitY=1;exitDx=0;exitDy=0;entryX=0.5;entryY=0;entryDx=0;entryDy=0;" edge="1" parent="1" source="z3DEqq307aL3IMsRYudp-5" target="HJchU2hsuEq9Lt6WwAvw-18">
          <mxGeometry relative="1" as="geometry" />
        </mxCell>
        <mxCell id="z3DEqq307aL3IMsRYudp-5" value="&lt;font style=&quot;font-size: 16px;&quot;&gt;Lay Egg&lt;/font&gt;" style="rounded=0;whiteSpace=wrap;html=1;" parent="1" vertex="1">
          <mxGeometry x="450" y="150" width="120" height="60" as="geometry" />
        </mxCell>
        <mxCell id="HJchU2hsuEq9Lt6WwAvw-12" style="edgeStyle=orthogonalEdgeStyle;rounded=0;orthogonalLoop=1;jettySize=auto;html=1;exitX=0.5;exitY=1;exitDx=0;exitDy=0;" edge="1" parent="1" source="z3DEqq307aL3IMsRYudp-6" target="HJchU2hsuEq9Lt6WwAvw-11">
          <mxGeometry relative="1" as="geometry" />
        </mxCell>
        <mxCell id="z3DEqq307aL3IMsRYudp-6" value="&lt;font style=&quot;font-size: 16px;&quot;&gt;Gain Card&lt;/font&gt;" style="rounded=0;whiteSpace=wrap;html=1;" parent="1" vertex="1">
          <mxGeometry x="660" y="150" width="120" height="60" as="geometry" />
        </mxCell>
        <mxCell id="HJchU2hsuEq9Lt6WwAvw-6" value="&lt;font style=&quot;font-size: 16px;&quot;&gt;&lt;b&gt;&lt;u&gt;Important Notes&lt;br&gt;&lt;/u&gt;&lt;/b&gt;&lt;br&gt;The action space only concerns itself with decisions in the boxes.&amp;nbsp; The agent will learn how its actions lead to the connections between the boxes.&amp;nbsp; In other words, actions are made at a micro level.&amp;nbsp; Instead of &quot;what are all the things I&#39;ll do this turn&quot;, actions are one step at a time.&amp;nbsp; Eg. &quot;where should I place my first egg that I can place&quot;.&amp;nbsp; This limits the action space to a much more reasonable size for learning.&lt;br&gt;&lt;br&gt;This diagram does not yet incorporate the starting decisions (pick 5 cards + food)&lt;br&gt;&lt;br&gt;See same-named action in action_space in Env.py for more info&lt;br&gt;&lt;br&gt;Same-named states are identical from a &quot;action_state&quot; perspective but may be represented multiple times on this diagram so the flow is clearer&lt;br&gt;&lt;br&gt;What actions are available are determined by the observations state.&amp;nbsp; See Env.py for more details&lt;/font&gt;" style="text;html=1;strokeColor=none;fillColor=none;align=center;verticalAlign=middle;whiteSpace=wrap;rounded=0;" vertex="1" parent="1">
          <mxGeometry x="95" y="-330" width="610" height="320" as="geometry" />
        </mxCell>
        <mxCell id="HJchU2hsuEq9Lt6WwAvw-7" style="edgeStyle=orthogonalEdgeStyle;rounded=0;orthogonalLoop=1;jettySize=auto;html=1;exitX=0.5;exitY=1;exitDx=0;exitDy=0;entryX=1;entryY=0.5;entryDx=0;entryDy=0;" edge="1" parent="1" source="z3DEqq307aL3IMsRYudp-6" target="z3DEqq307aL3IMsRYudp-6">
          <mxGeometry relative="1" as="geometry">
            <Array as="points">
              <mxPoint x="720" y="270" />
              <mxPoint x="840" y="270" />
              <mxPoint x="840" y="180" />
            </Array>
          </mxGeometry>
        </mxCell>
        <mxCell id="HJchU2hsuEq9Lt6WwAvw-8" value="Repeat up to 2 times" style="edgeLabel;html=1;align=center;verticalAlign=middle;resizable=0;points=[];" vertex="1" connectable="0" parent="HJchU2hsuEq9Lt6WwAvw-7">
          <mxGeometry x="-0.2303" y="-1" relative="1" as="geometry">
            <mxPoint as="offset" />
          </mxGeometry>
        </mxCell>
        <mxCell id="HJchU2hsuEq9Lt6WwAvw-31" style="edgeStyle=orthogonalEdgeStyle;rounded=0;orthogonalLoop=1;jettySize=auto;html=1;exitX=0.5;exitY=1;exitDx=0;exitDy=0;entryX=0.5;entryY=0;entryDx=0;entryDy=0;" edge="1" parent="1" source="HJchU2hsuEq9Lt6WwAvw-11" target="HJchU2hsuEq9Lt6WwAvw-28">
          <mxGeometry relative="1" as="geometry" />
        </mxCell>
        <mxCell id="HJchU2hsuEq9Lt6WwAvw-37" style="edgeStyle=orthogonalEdgeStyle;rounded=0;orthogonalLoop=1;jettySize=auto;html=1;exitX=1;exitY=0.5;exitDx=0;exitDy=0;entryX=0.5;entryY=1;entryDx=0;entryDy=0;" edge="1" parent="1" source="HJchU2hsuEq9Lt6WwAvw-11" target="HJchU2hsuEq9Lt6WwAvw-32">
          <mxGeometry relative="1" as="geometry" />
        </mxCell>
        <mxCell id="HJchU2hsuEq9Lt6WwAvw-40" value="Yes" style="edgeLabel;html=1;align=center;verticalAlign=middle;resizable=0;points=[];" vertex="1" connectable="0" parent="HJchU2hsuEq9Lt6WwAvw-37">
          <mxGeometry x="0.04" y="-1" relative="1" as="geometry">
            <mxPoint as="offset" />
          </mxGeometry>
        </mxCell>
        <mxCell id="HJchU2hsuEq9Lt6WwAvw-11" value="&lt;font style=&quot;font-size: 16px;&quot;&gt;Discard Egg?&lt;/font&gt;" style="rounded=0;whiteSpace=wrap;html=1;" vertex="1" parent="1">
          <mxGeometry x="660" y="490" width="120" height="60" as="geometry" />
        </mxCell>
        <mxCell id="HJchU2hsuEq9Lt6WwAvw-15" style="edgeStyle=orthogonalEdgeStyle;rounded=0;orthogonalLoop=1;jettySize=auto;html=1;exitX=0.5;exitY=1;exitDx=0;exitDy=0;entryX=1;entryY=0.5;entryDx=0;entryDy=0;" edge="1" parent="1" source="z3DEqq307aL3IMsRYudp-5" target="z3DEqq307aL3IMsRYudp-5">
          <mxGeometry relative="1" as="geometry">
            <Array as="points">
              <mxPoint x="510" y="260" />
              <mxPoint x="610" y="260" />
              <mxPoint x="610" y="180" />
            </Array>
          </mxGeometry>
        </mxCell>
        <mxCell id="HJchU2hsuEq9Lt6WwAvw-16" value="Repeat up to 3 times" style="edgeLabel;html=1;align=center;verticalAlign=middle;resizable=0;points=[];" vertex="1" connectable="0" parent="HJchU2hsuEq9Lt6WwAvw-15">
          <mxGeometry x="-0.2459" y="3" relative="1" as="geometry">
            <mxPoint as="offset" />
          </mxGeometry>
        </mxCell>
        <mxCell id="HJchU2hsuEq9Lt6WwAvw-30" style="edgeStyle=orthogonalEdgeStyle;rounded=0;orthogonalLoop=1;jettySize=auto;html=1;exitX=0.5;exitY=1;exitDx=0;exitDy=0;" edge="1" parent="1" source="HJchU2hsuEq9Lt6WwAvw-18">
          <mxGeometry relative="1" as="geometry">
            <mxPoint x="510" y="640" as="targetPoint" />
          </mxGeometry>
        </mxCell>
        <mxCell id="HJchU2hsuEq9Lt6WwAvw-36" style="edgeStyle=orthogonalEdgeStyle;rounded=0;orthogonalLoop=1;jettySize=auto;html=1;exitX=1;exitY=0.5;exitDx=0;exitDy=0;entryX=0.5;entryY=1;entryDx=0;entryDy=0;" edge="1" parent="1" source="HJchU2hsuEq9Lt6WwAvw-18" target="HJchU2hsuEq9Lt6WwAvw-33">
          <mxGeometry relative="1" as="geometry" />
        </mxCell>
        <mxCell id="HJchU2hsuEq9Lt6WwAvw-39" value="Yes" style="edgeLabel;html=1;align=center;verticalAlign=middle;resizable=0;points=[];" vertex="1" connectable="0" parent="HJchU2hsuEq9Lt6WwAvw-36">
          <mxGeometry x="-0.0057" y="3" relative="1" as="geometry">
            <mxPoint as="offset" />
          </mxGeometry>
        </mxCell>
        <mxCell id="HJchU2hsuEq9Lt6WwAvw-18" value="&lt;font style=&quot;font-size: 16px;&quot;&gt;Discard Food?&lt;/font&gt;" style="rounded=0;whiteSpace=wrap;html=1;" vertex="1" parent="1">
          <mxGeometry x="450" y="490" width="120" height="60" as="geometry" />
        </mxCell>
        <mxCell id="HJchU2hsuEq9Lt6WwAvw-29" style="edgeStyle=orthogonalEdgeStyle;rounded=0;orthogonalLoop=1;jettySize=auto;html=1;exitX=0.5;exitY=1;exitDx=0;exitDy=0;entryX=0.5;entryY=0;entryDx=0;entryDy=0;" edge="1" parent="1" source="HJchU2hsuEq9Lt6WwAvw-22" target="HJchU2hsuEq9Lt6WwAvw-28">
          <mxGeometry relative="1" as="geometry" />
        </mxCell>
        <mxCell id="HJchU2hsuEq9Lt6WwAvw-35" style="edgeStyle=orthogonalEdgeStyle;rounded=0;orthogonalLoop=1;jettySize=auto;html=1;exitX=1;exitY=0.5;exitDx=0;exitDy=0;entryX=0.5;entryY=1;entryDx=0;entryDy=0;" edge="1" parent="1" source="HJchU2hsuEq9Lt6WwAvw-22" target="HJchU2hsuEq9Lt6WwAvw-34">
          <mxGeometry relative="1" as="geometry" />
        </mxCell>
        <mxCell id="HJchU2hsuEq9Lt6WwAvw-38" value="Yes" style="edgeLabel;html=1;align=center;verticalAlign=middle;resizable=0;points=[];" vertex="1" connectable="0" parent="HJchU2hsuEq9Lt6WwAvw-35">
          <mxGeometry x="0.1514" y="1" relative="1" as="geometry">
            <mxPoint as="offset" />
          </mxGeometry>
        </mxCell>
        <mxCell id="HJchU2hsuEq9Lt6WwAvw-22" value="&lt;font style=&quot;font-size: 16px;&quot;&gt;Discard Card?&lt;/font&gt;" style="rounded=0;whiteSpace=wrap;html=1;" vertex="1" parent="1">
          <mxGeometry x="230" y="490" width="120" height="60" as="geometry" />
        </mxCell>
        <mxCell id="HJchU2hsuEq9Lt6WwAvw-23" style="edgeStyle=orthogonalEdgeStyle;rounded=0;orthogonalLoop=1;jettySize=auto;html=1;exitX=0.5;exitY=1;exitDx=0;exitDy=0;entryX=1;entryY=0.5;entryDx=0;entryDy=0;" edge="1" parent="1" source="z3DEqq307aL3IMsRYudp-4" target="z3DEqq307aL3IMsRYudp-4">
          <mxGeometry relative="1" as="geometry">
            <Array as="points">
              <mxPoint x="290" y="260" />
              <mxPoint x="370" y="260" />
              <mxPoint x="370" y="180" />
            </Array>
          </mxGeometry>
        </mxCell>
        <mxCell id="HJchU2hsuEq9Lt6WwAvw-24" value="Repeat up to 2 times" style="edgeLabel;html=1;align=center;verticalAlign=middle;resizable=0;points=[];" vertex="1" connectable="0" parent="HJchU2hsuEq9Lt6WwAvw-23">
          <mxGeometry x="-0.193" y="1" relative="1" as="geometry">
            <mxPoint as="offset" />
          </mxGeometry>
        </mxCell>
        <mxCell id="HJchU2hsuEq9Lt6WwAvw-58" style="edgeStyle=orthogonalEdgeStyle;rounded=0;orthogonalLoop=1;jettySize=auto;html=1;exitX=0.5;exitY=1;exitDx=0;exitDy=0;entryX=0.5;entryY=0;entryDx=0;entryDy=0;" edge="1" parent="1" source="HJchU2hsuEq9Lt6WwAvw-28" target="HJchU2hsuEq9Lt6WwAvw-53">
          <mxGeometry relative="1" as="geometry" />
        </mxCell>
        <mxCell id="HJchU2hsuEq9Lt6WwAvw-28" value="&lt;span style=&quot;font-size: 16px;&quot;&gt;Powers?&lt;/span&gt;" style="rounded=0;whiteSpace=wrap;html=1;" vertex="1" parent="1">
          <mxGeometry x="450" y="640" width="120" height="60" as="geometry" />
        </mxCell>
        <mxCell id="HJchU2hsuEq9Lt6WwAvw-41" style="edgeStyle=orthogonalEdgeStyle;rounded=0;orthogonalLoop=1;jettySize=auto;html=1;exitX=0.5;exitY=0;exitDx=0;exitDy=0;entryX=1;entryY=0.5;entryDx=0;entryDy=0;" edge="1" parent="1" source="HJchU2hsuEq9Lt6WwAvw-32" target="z3DEqq307aL3IMsRYudp-6">
          <mxGeometry relative="1" as="geometry">
            <Array as="points">
              <mxPoint x="840" y="360" />
              <mxPoint x="840" y="180" />
            </Array>
          </mxGeometry>
        </mxCell>
        <mxCell id="HJchU2hsuEq9Lt6WwAvw-32" value="&lt;span style=&quot;font-size: 16px;&quot;&gt;Choose Egg to Discard&lt;/span&gt;" style="rounded=0;whiteSpace=wrap;html=1;" vertex="1" parent="1">
          <mxGeometry x="750" y="360" width="120" height="60" as="geometry" />
        </mxCell>
        <mxCell id="HJchU2hsuEq9Lt6WwAvw-42" style="edgeStyle=orthogonalEdgeStyle;rounded=0;orthogonalLoop=1;jettySize=auto;html=1;exitX=0.5;exitY=0;exitDx=0;exitDy=0;entryX=1;entryY=0.5;entryDx=0;entryDy=0;" edge="1" parent="1" source="HJchU2hsuEq9Lt6WwAvw-33" target="z3DEqq307aL3IMsRYudp-5">
          <mxGeometry relative="1" as="geometry" />
        </mxCell>
        <mxCell id="HJchU2hsuEq9Lt6WwAvw-33" value="&lt;span style=&quot;font-size: 16px;&quot;&gt;Choose Food to Discard&lt;/span&gt;" style="rounded=0;whiteSpace=wrap;html=1;" vertex="1" parent="1">
          <mxGeometry x="550" y="360" width="120" height="60" as="geometry" />
        </mxCell>
        <mxCell id="HJchU2hsuEq9Lt6WwAvw-43" style="edgeStyle=orthogonalEdgeStyle;rounded=0;orthogonalLoop=1;jettySize=auto;html=1;exitX=0.5;exitY=0;exitDx=0;exitDy=0;entryX=1;entryY=0.5;entryDx=0;entryDy=0;" edge="1" parent="1" source="HJchU2hsuEq9Lt6WwAvw-34" target="z3DEqq307aL3IMsRYudp-4">
          <mxGeometry relative="1" as="geometry" />
        </mxCell>
        <mxCell id="HJchU2hsuEq9Lt6WwAvw-34" value="&lt;span style=&quot;font-size: 16px;&quot;&gt;Choose Card to Discard&lt;/span&gt;" style="rounded=0;whiteSpace=wrap;html=1;" vertex="1" parent="1">
          <mxGeometry x="330" y="360" width="120" height="60" as="geometry" />
        </mxCell>
        <mxCell id="HJchU2hsuEq9Lt6WwAvw-49" style="edgeStyle=orthogonalEdgeStyle;rounded=0;orthogonalLoop=1;jettySize=auto;html=1;exitX=0.5;exitY=1;exitDx=0;exitDy=0;entryX=0.5;entryY=0;entryDx=0;entryDy=0;" edge="1" parent="1" source="HJchU2hsuEq9Lt6WwAvw-44" target="HJchU2hsuEq9Lt6WwAvw-45">
          <mxGeometry relative="1" as="geometry" />
        </mxCell>
        <mxCell id="HJchU2hsuEq9Lt6WwAvw-44" value="&lt;span style=&quot;font-size: 16px;&quot;&gt;Choose Egg to Discard&lt;/span&gt;" style="rounded=0;whiteSpace=wrap;html=1;" vertex="1" parent="1">
          <mxGeometry x="20" y="260" width="120" height="60" as="geometry" />
        </mxCell>
        <mxCell id="HJchU2hsuEq9Lt6WwAvw-52" style="edgeStyle=orthogonalEdgeStyle;rounded=0;orthogonalLoop=1;jettySize=auto;html=1;exitX=0.5;exitY=1;exitDx=0;exitDy=0;entryX=0;entryY=0.5;entryDx=0;entryDy=0;" edge="1" parent="1" source="HJchU2hsuEq9Lt6WwAvw-45" target="HJchU2hsuEq9Lt6WwAvw-28">
          <mxGeometry relative="1" as="geometry" />
        </mxCell>
        <mxCell id="HJchU2hsuEq9Lt6WwAvw-45" value="&lt;span style=&quot;font-size: 16px;&quot;&gt;Choose Food to Discard&lt;/span&gt;" style="rounded=0;whiteSpace=wrap;html=1;" vertex="1" parent="1">
          <mxGeometry x="20" y="370" width="120" height="60" as="geometry" />
        </mxCell>
        <mxCell id="HJchU2hsuEq9Lt6WwAvw-47" style="edgeStyle=orthogonalEdgeStyle;rounded=0;orthogonalLoop=1;jettySize=auto;html=1;exitX=0.5;exitY=1;exitDx=0;exitDy=0;entryX=1;entryY=0.5;entryDx=0;entryDy=0;" edge="1" parent="1" source="HJchU2hsuEq9Lt6WwAvw-44" target="HJchU2hsuEq9Lt6WwAvw-44">
          <mxGeometry relative="1" as="geometry" />
        </mxCell>
        <mxCell id="HJchU2hsuEq9Lt6WwAvw-48" value="Repeat up to 1" style="edgeLabel;html=1;align=center;verticalAlign=middle;resizable=0;points=[];" vertex="1" connectable="0" parent="HJchU2hsuEq9Lt6WwAvw-47">
          <mxGeometry x="-0.2071" relative="1" as="geometry">
            <mxPoint as="offset" />
          </mxGeometry>
        </mxCell>
        <mxCell id="HJchU2hsuEq9Lt6WwAvw-50" style="edgeStyle=orthogonalEdgeStyle;rounded=0;orthogonalLoop=1;jettySize=auto;html=1;exitX=0.5;exitY=1;exitDx=0;exitDy=0;entryX=1;entryY=0.5;entryDx=0;entryDy=0;" edge="1" parent="1" source="HJchU2hsuEq9Lt6WwAvw-45" target="HJchU2hsuEq9Lt6WwAvw-45">
          <mxGeometry relative="1" as="geometry" />
        </mxCell>
        <mxCell id="HJchU2hsuEq9Lt6WwAvw-51" value="Repeat up to twice" style="edgeLabel;html=1;align=center;verticalAlign=middle;resizable=0;points=[];" vertex="1" connectable="0" parent="HJchU2hsuEq9Lt6WwAvw-50">
          <mxGeometry x="-0.2541" y="-1" relative="1" as="geometry">
            <mxPoint as="offset" />
          </mxGeometry>
        </mxCell>
        <mxCell id="HJchU2hsuEq9Lt6WwAvw-64" style="edgeStyle=orthogonalEdgeStyle;rounded=0;orthogonalLoop=1;jettySize=auto;html=1;exitX=0.5;exitY=1;exitDx=0;exitDy=0;entryX=0.5;entryY=0;entryDx=0;entryDy=0;" edge="1" parent="1" source="HJchU2hsuEq9Lt6WwAvw-53" target="HJchU2hsuEq9Lt6WwAvw-62">
          <mxGeometry relative="1" as="geometry" />
        </mxCell>
        <mxCell id="HJchU2hsuEq9Lt6WwAvw-65" style="edgeStyle=orthogonalEdgeStyle;rounded=0;orthogonalLoop=1;jettySize=auto;html=1;exitX=0.5;exitY=1;exitDx=0;exitDy=0;entryX=0.5;entryY=0;entryDx=0;entryDy=0;" edge="1" parent="1" source="HJchU2hsuEq9Lt6WwAvw-53" target="HJchU2hsuEq9Lt6WwAvw-59">
          <mxGeometry relative="1" as="geometry" />
        </mxCell>
        <mxCell id="HJchU2hsuEq9Lt6WwAvw-66" style="edgeStyle=orthogonalEdgeStyle;rounded=0;orthogonalLoop=1;jettySize=auto;html=1;exitX=0.5;exitY=1;exitDx=0;exitDy=0;" edge="1" parent="1" source="HJchU2hsuEq9Lt6WwAvw-53" target="HJchU2hsuEq9Lt6WwAvw-63">
          <mxGeometry relative="1" as="geometry" />
        </mxCell>
        <mxCell id="HJchU2hsuEq9Lt6WwAvw-53" value="&lt;font style=&quot;font-size: 16px;&quot;&gt;Powers may include any of the above actions (including &quot;Powers?&quot;), or additional actions outlined below&lt;/font&gt;" style="rounded=0;whiteSpace=wrap;html=1;" vertex="1" parent="1">
          <mxGeometry x="330" y="740" width="360" height="60" as="geometry" />
        </mxCell>
        <mxCell id="HJchU2hsuEq9Lt6WwAvw-70" style="edgeStyle=orthogonalEdgeStyle;rounded=0;orthogonalLoop=1;jettySize=auto;html=1;exitX=0.5;exitY=1;exitDx=0;exitDy=0;entryX=1;entryY=0.5;entryDx=0;entryDy=0;" edge="1" parent="1" source="HJchU2hsuEq9Lt6WwAvw-59" target="HJchU2hsuEq9Lt6WwAvw-28">
          <mxGeometry relative="1" as="geometry">
            <Array as="points">
              <mxPoint x="340" y="920" />
              <mxPoint x="780" y="920" />
              <mxPoint x="780" y="670" />
            </Array>
          </mxGeometry>
        </mxCell>
        <mxCell id="HJchU2hsuEq9Lt6WwAvw-59" value="&lt;span style=&quot;font-size: 16px;&quot;&gt;Bonus Card&lt;/span&gt;" style="rounded=0;whiteSpace=wrap;html=1;" vertex="1" parent="1">
          <mxGeometry x="280" y="840" width="120" height="60" as="geometry" />
        </mxCell>
        <mxCell id="HJchU2hsuEq9Lt6WwAvw-69" style="edgeStyle=orthogonalEdgeStyle;rounded=0;orthogonalLoop=1;jettySize=auto;html=1;exitX=0.5;exitY=1;exitDx=0;exitDy=0;entryX=1;entryY=0.5;entryDx=0;entryDy=0;" edge="1" parent="1" source="HJchU2hsuEq9Lt6WwAvw-62" target="HJchU2hsuEq9Lt6WwAvw-28">
          <mxGeometry relative="1" as="geometry">
            <Array as="points">
              <mxPoint x="510" y="920" />
              <mxPoint x="780" y="920" />
              <mxPoint x="780" y="670" />
            </Array>
          </mxGeometry>
        </mxCell>
        <mxCell id="HJchU2hsuEq9Lt6WwAvw-62" value="&lt;span style=&quot;font-size: 16px;&quot;&gt;Cache or keep food&lt;/span&gt;" style="rounded=0;whiteSpace=wrap;html=1;" vertex="1" parent="1">
          <mxGeometry x="450" y="840" width="120" height="60" as="geometry" />
        </mxCell>
        <mxCell id="HJchU2hsuEq9Lt6WwAvw-67" style="edgeStyle=orthogonalEdgeStyle;rounded=0;orthogonalLoop=1;jettySize=auto;html=1;exitX=0.5;exitY=1;exitDx=0;exitDy=0;entryX=1;entryY=0.5;entryDx=0;entryDy=0;" edge="1" parent="1" source="HJchU2hsuEq9Lt6WwAvw-63" target="HJchU2hsuEq9Lt6WwAvw-28">
          <mxGeometry relative="1" as="geometry">
            <Array as="points">
              <mxPoint x="680" y="920" />
              <mxPoint x="780" y="920" />
              <mxPoint x="780" y="670" />
            </Array>
          </mxGeometry>
        </mxCell>
        <mxCell id="HJchU2hsuEq9Lt6WwAvw-71" value="Repeat up to 4 times" style="edgeLabel;html=1;align=center;verticalAlign=middle;resizable=0;points=[];" vertex="1" connectable="0" parent="HJchU2hsuEq9Lt6WwAvw-67">
          <mxGeometry x="-0.1393" y="4" relative="1" as="geometry">
            <mxPoint as="offset" />
          </mxGeometry>
        </mxCell>
        <mxCell id="HJchU2hsuEq9Lt6WwAvw-63" value="&lt;span style=&quot;font-size: 16px;&quot;&gt;Move bird&lt;/span&gt;" style="rounded=0;whiteSpace=wrap;html=1;" vertex="1" parent="1">
          <mxGeometry x="620" y="840" width="120" height="60" as="geometry" />
        </mxCell>
      </root>
    </mxGraphModel>
  </diagram>
</mxfile>
